<mxfile host="app.diagrams.net" modified="2023-10-21T03:34:40.192Z" agent="Mozilla/5.0 (Windows NT 10.0; Win64; x64) AppleWebKit/537.36 (KHTML, like Gecko) Chrome/118.0.0.0 Safari/537.36" etag="-_hxGCNdN-y63OinQcPz" version="22.0.6" type="github">
  <diagram name="第 1 页" id="HRHzfO-NqE-NCRVmVgGs">
    <mxGraphModel dx="1018" dy="619" grid="1" gridSize="10" guides="1" tooltips="1" connect="1" arrows="1" fold="1" page="1" pageScale="1" pageWidth="827" pageHeight="1169" math="0" shadow="0">
      <root>
        <mxCell id="0" />
        <mxCell id="1" parent="0" />
        <mxCell id="2-wkImMzWqmc6pJkpYYF-1" value="" style="shape=link;html=1;rounded=0;" edge="1" parent="1">
          <mxGeometry width="100" relative="1" as="geometry">
            <mxPoint x="20" y="270" as="sourcePoint" />
            <mxPoint x="510" y="270" as="targetPoint" />
          </mxGeometry>
        </mxCell>
        <mxCell id="2-wkImMzWqmc6pJkpYYF-2" value="Disk" style="text;html=1;strokeColor=none;fillColor=none;align=center;verticalAlign=middle;whiteSpace=wrap;rounded=0;" vertex="1" parent="1">
          <mxGeometry x="470" y="280" width="40" height="40" as="geometry" />
        </mxCell>
        <mxCell id="2-wkImMzWqmc6pJkpYYF-3" value="Memory" style="text;html=1;strokeColor=none;fillColor=none;align=center;verticalAlign=middle;whiteSpace=wrap;rounded=0;" vertex="1" parent="1">
          <mxGeometry x="470" y="230" width="40" height="40" as="geometry" />
        </mxCell>
        <mxCell id="2-wkImMzWqmc6pJkpYYF-12" value="MemTable" style="rounded=1;whiteSpace=wrap;html=1;" vertex="1" parent="1">
          <mxGeometry x="50" y="170" width="80" height="30" as="geometry" />
        </mxCell>
        <mxCell id="2-wkImMzWqmc6pJkpYYF-13" value="vLog0" style="rounded=1;whiteSpace=wrap;html=1;" vertex="1" parent="1">
          <mxGeometry x="90" y="315" width="80" height="40" as="geometry" />
        </mxCell>
        <mxCell id="2-wkImMzWqmc6pJkpYYF-14" value="Imutable MemTable" style="rounded=1;whiteSpace=wrap;html=1;" vertex="1" parent="1">
          <mxGeometry x="50" y="220" width="80" height="30" as="geometry" />
        </mxCell>
        <mxCell id="2-wkImMzWqmc6pJkpYYF-15" value="" style="rounded=1;whiteSpace=wrap;html=1;" vertex="1" parent="1">
          <mxGeometry x="150" y="130" width="140" height="120" as="geometry" />
        </mxCell>
        <mxCell id="2-wkImMzWqmc6pJkpYYF-16" value="Address Mapping Table cache" style="text;html=1;strokeColor=none;fillColor=none;align=center;verticalAlign=middle;whiteSpace=wrap;rounded=0;" vertex="1" parent="1">
          <mxGeometry x="155" y="140" width="130" height="30" as="geometry" />
        </mxCell>
        <mxCell id="2-wkImMzWqmc6pJkpYYF-18" value="" style="rounded=1;whiteSpace=wrap;html=1;" vertex="1" parent="1">
          <mxGeometry x="220" y="170" width="40" height="50" as="geometry" />
        </mxCell>
        <mxCell id="2-wkImMzWqmc6pJkpYYF-19" value="" style="rounded=1;whiteSpace=wrap;html=1;" vertex="1" parent="1">
          <mxGeometry x="200" y="180" width="40" height="50" as="geometry" />
        </mxCell>
        <mxCell id="2-wkImMzWqmc6pJkpYYF-20" value="&lt;font style=&quot;font-size: 9px;&quot;&gt;Address Mapping Table&lt;/font&gt;" style="rounded=1;whiteSpace=wrap;html=1;" vertex="1" parent="1">
          <mxGeometry x="180" y="190" width="40" height="50" as="geometry" />
        </mxCell>
        <mxCell id="2-wkImMzWqmc6pJkpYYF-21" value="vLog1" style="rounded=1;whiteSpace=wrap;html=1;" vertex="1" parent="1">
          <mxGeometry x="90" y="365" width="80" height="40" as="geometry" />
        </mxCell>
        <mxCell id="2-wkImMzWqmc6pJkpYYF-22" value="vLogN" style="rounded=1;whiteSpace=wrap;html=1;" vertex="1" parent="1">
          <mxGeometry x="90" y="415" width="80" height="40" as="geometry" />
        </mxCell>
        <mxCell id="2-wkImMzWqmc6pJkpYYF-23" value="" style="rounded=1;whiteSpace=wrap;html=1;" vertex="1" parent="1">
          <mxGeometry x="200" y="290" width="190" height="170" as="geometry" />
        </mxCell>
        <mxCell id="2-wkImMzWqmc6pJkpYYF-25" value="LSM-Tree" style="text;html=1;strokeColor=none;fillColor=none;align=center;verticalAlign=middle;whiteSpace=wrap;rounded=0;" vertex="1" parent="1">
          <mxGeometry x="265" y="290" width="60" height="30" as="geometry" />
        </mxCell>
        <mxCell id="2-wkImMzWqmc6pJkpYYF-27" value="L0&lt;br&gt;&lt;br&gt;L1&lt;br&gt;&lt;br&gt;L2&lt;br&gt;...&lt;br&gt;Ln" style="text;html=1;strokeColor=none;fillColor=none;align=center;verticalAlign=middle;whiteSpace=wrap;rounded=0;" vertex="1" parent="1">
          <mxGeometry x="205" y="370" width="60" height="30" as="geometry" />
        </mxCell>
        <mxCell id="2-wkImMzWqmc6pJkpYYF-30" value="" style="rounded=1;whiteSpace=wrap;html=1;" vertex="1" parent="1">
          <mxGeometry x="260" y="330" width="20" height="20" as="geometry" />
        </mxCell>
        <mxCell id="2-wkImMzWqmc6pJkpYYF-33" value="" style="rounded=1;whiteSpace=wrap;html=1;" vertex="1" parent="1">
          <mxGeometry x="260" y="360" width="20" height="20" as="geometry" />
        </mxCell>
        <mxCell id="2-wkImMzWqmc6pJkpYYF-34" value="" style="rounded=1;whiteSpace=wrap;html=1;" vertex="1" parent="1">
          <mxGeometry x="290" y="360" width="20" height="20" as="geometry" />
        </mxCell>
        <mxCell id="2-wkImMzWqmc6pJkpYYF-35" value="" style="rounded=1;whiteSpace=wrap;html=1;" vertex="1" parent="1">
          <mxGeometry x="260" y="390" width="20" height="20" as="geometry" />
        </mxCell>
        <mxCell id="2-wkImMzWqmc6pJkpYYF-36" value="" style="rounded=1;whiteSpace=wrap;html=1;" vertex="1" parent="1">
          <mxGeometry x="290" y="390" width="20" height="20" as="geometry" />
        </mxCell>
        <mxCell id="2-wkImMzWqmc6pJkpYYF-37" value="" style="rounded=1;whiteSpace=wrap;html=1;" vertex="1" parent="1">
          <mxGeometry x="320" y="390" width="20" height="20" as="geometry" />
        </mxCell>
        <mxCell id="2-wkImMzWqmc6pJkpYYF-38" value="" style="rounded=1;whiteSpace=wrap;html=1;" vertex="1" parent="1">
          <mxGeometry x="260" y="420" width="20" height="20" as="geometry" />
        </mxCell>
        <mxCell id="2-wkImMzWqmc6pJkpYYF-39" value="" style="rounded=1;whiteSpace=wrap;html=1;" vertex="1" parent="1">
          <mxGeometry x="290" y="420" width="20" height="20" as="geometry" />
        </mxCell>
        <mxCell id="2-wkImMzWqmc6pJkpYYF-40" value="" style="rounded=1;whiteSpace=wrap;html=1;" vertex="1" parent="1">
          <mxGeometry x="320" y="420" width="20" height="20" as="geometry" />
        </mxCell>
        <mxCell id="2-wkImMzWqmc6pJkpYYF-41" value="" style="rounded=1;whiteSpace=wrap;html=1;" vertex="1" parent="1">
          <mxGeometry x="350" y="420" width="20" height="20" as="geometry" />
        </mxCell>
        <mxCell id="2-wkImMzWqmc6pJkpYYF-42" value="" style="endArrow=classic;html=1;rounded=0;" edge="1" parent="1">
          <mxGeometry width="50" height="50" relative="1" as="geometry">
            <mxPoint x="550" y="360" as="sourcePoint" />
            <mxPoint x="600" y="360" as="targetPoint" />
          </mxGeometry>
        </mxCell>
        <mxCell id="2-wkImMzWqmc6pJkpYYF-43" value="" style="endArrow=classic;html=1;rounded=0;dashed=1;" edge="1" parent="1">
          <mxGeometry width="50" height="50" relative="1" as="geometry">
            <mxPoint x="220" y="214.57999999999998" as="sourcePoint" />
            <mxPoint x="330" y="215" as="targetPoint" />
          </mxGeometry>
        </mxCell>
        <mxCell id="2-wkImMzWqmc6pJkpYYF-44" value="" style="rounded=0;whiteSpace=wrap;html=1;" vertex="1" parent="1">
          <mxGeometry x="330" y="140" width="110" height="105" as="geometry" />
        </mxCell>
        <mxCell id="2-wkImMzWqmc6pJkpYYF-45" value="&lt;font style=&quot;font-size: 9px;&quot;&gt;Address Mapping Table&lt;/font&gt;" style="text;html=1;strokeColor=none;fillColor=none;align=center;verticalAlign=middle;whiteSpace=wrap;rounded=0;" vertex="1" parent="1">
          <mxGeometry x="317.5" y="140" width="135" height="30" as="geometry" />
        </mxCell>
        <mxCell id="2-wkImMzWqmc6pJkpYYF-46" value="" style="shape=table;startSize=0;container=1;collapsible=0;childLayout=tableLayout;fontSize=16;" vertex="1" parent="1">
          <mxGeometry x="580" y="80" width="120" height="120" as="geometry" />
        </mxCell>
        <mxCell id="2-wkImMzWqmc6pJkpYYF-47" value="" style="shape=tableRow;horizontal=0;startSize=0;swimlaneHead=0;swimlaneBody=0;strokeColor=inherit;top=0;left=0;bottom=0;right=0;collapsible=0;dropTarget=0;fillColor=none;points=[[0,0.5],[1,0.5]];portConstraint=eastwest;fontSize=16;" vertex="1" parent="2-wkImMzWqmc6pJkpYYF-46">
          <mxGeometry width="120" height="40" as="geometry" />
        </mxCell>
        <mxCell id="2-wkImMzWqmc6pJkpYYF-48" value="" style="shape=partialRectangle;html=1;whiteSpace=wrap;connectable=0;strokeColor=inherit;overflow=hidden;fillColor=none;top=0;left=0;bottom=0;right=0;pointerEvents=1;fontSize=16;" vertex="1" parent="2-wkImMzWqmc6pJkpYYF-47">
          <mxGeometry width="39" height="40" as="geometry">
            <mxRectangle width="39" height="40" as="alternateBounds" />
          </mxGeometry>
        </mxCell>
        <mxCell id="2-wkImMzWqmc6pJkpYYF-49" value="" style="shape=partialRectangle;html=1;whiteSpace=wrap;connectable=0;strokeColor=inherit;overflow=hidden;fillColor=none;top=0;left=0;bottom=0;right=0;pointerEvents=1;fontSize=16;" vertex="1" parent="2-wkImMzWqmc6pJkpYYF-47">
          <mxGeometry x="39" width="42" height="40" as="geometry">
            <mxRectangle width="42" height="40" as="alternateBounds" />
          </mxGeometry>
        </mxCell>
        <mxCell id="2-wkImMzWqmc6pJkpYYF-50" value="" style="shape=partialRectangle;html=1;whiteSpace=wrap;connectable=0;strokeColor=inherit;overflow=hidden;fillColor=none;top=0;left=0;bottom=0;right=0;pointerEvents=1;fontSize=16;" vertex="1" parent="2-wkImMzWqmc6pJkpYYF-47">
          <mxGeometry x="81" width="39" height="40" as="geometry">
            <mxRectangle width="39" height="40" as="alternateBounds" />
          </mxGeometry>
        </mxCell>
        <mxCell id="2-wkImMzWqmc6pJkpYYF-51" value="" style="shape=tableRow;horizontal=0;startSize=0;swimlaneHead=0;swimlaneBody=0;strokeColor=inherit;top=0;left=0;bottom=0;right=0;collapsible=0;dropTarget=0;fillColor=none;points=[[0,0.5],[1,0.5]];portConstraint=eastwest;fontSize=16;" vertex="1" parent="2-wkImMzWqmc6pJkpYYF-46">
          <mxGeometry y="40" width="120" height="40" as="geometry" />
        </mxCell>
        <mxCell id="2-wkImMzWqmc6pJkpYYF-52" value="" style="shape=partialRectangle;html=1;whiteSpace=wrap;connectable=0;strokeColor=inherit;overflow=hidden;fillColor=none;top=0;left=0;bottom=0;right=0;pointerEvents=1;fontSize=16;" vertex="1" parent="2-wkImMzWqmc6pJkpYYF-51">
          <mxGeometry width="39" height="40" as="geometry">
            <mxRectangle width="39" height="40" as="alternateBounds" />
          </mxGeometry>
        </mxCell>
        <mxCell id="2-wkImMzWqmc6pJkpYYF-53" value="" style="shape=partialRectangle;html=1;whiteSpace=wrap;connectable=0;strokeColor=inherit;overflow=hidden;fillColor=none;top=0;left=0;bottom=0;right=0;pointerEvents=1;fontSize=16;" vertex="1" parent="2-wkImMzWqmc6pJkpYYF-51">
          <mxGeometry x="39" width="42" height="40" as="geometry">
            <mxRectangle width="42" height="40" as="alternateBounds" />
          </mxGeometry>
        </mxCell>
        <mxCell id="2-wkImMzWqmc6pJkpYYF-54" value="" style="shape=partialRectangle;html=1;whiteSpace=wrap;connectable=0;strokeColor=inherit;overflow=hidden;fillColor=none;top=0;left=0;bottom=0;right=0;pointerEvents=1;fontSize=16;" vertex="1" parent="2-wkImMzWqmc6pJkpYYF-51">
          <mxGeometry x="81" width="39" height="40" as="geometry">
            <mxRectangle width="39" height="40" as="alternateBounds" />
          </mxGeometry>
        </mxCell>
        <mxCell id="2-wkImMzWqmc6pJkpYYF-55" value="" style="shape=tableRow;horizontal=0;startSize=0;swimlaneHead=0;swimlaneBody=0;strokeColor=inherit;top=0;left=0;bottom=0;right=0;collapsible=0;dropTarget=0;fillColor=none;points=[[0,0.5],[1,0.5]];portConstraint=eastwest;fontSize=16;" vertex="1" parent="2-wkImMzWqmc6pJkpYYF-46">
          <mxGeometry y="80" width="120" height="40" as="geometry" />
        </mxCell>
        <mxCell id="2-wkImMzWqmc6pJkpYYF-56" value="" style="shape=partialRectangle;html=1;whiteSpace=wrap;connectable=0;strokeColor=inherit;overflow=hidden;fillColor=none;top=0;left=0;bottom=0;right=0;pointerEvents=1;fontSize=16;" vertex="1" parent="2-wkImMzWqmc6pJkpYYF-55">
          <mxGeometry width="39" height="40" as="geometry">
            <mxRectangle width="39" height="40" as="alternateBounds" />
          </mxGeometry>
        </mxCell>
        <mxCell id="2-wkImMzWqmc6pJkpYYF-57" value="" style="shape=partialRectangle;html=1;whiteSpace=wrap;connectable=0;strokeColor=inherit;overflow=hidden;fillColor=none;top=0;left=0;bottom=0;right=0;pointerEvents=1;fontSize=16;" vertex="1" parent="2-wkImMzWqmc6pJkpYYF-55">
          <mxGeometry x="39" width="42" height="40" as="geometry">
            <mxRectangle width="42" height="40" as="alternateBounds" />
          </mxGeometry>
        </mxCell>
        <mxCell id="2-wkImMzWqmc6pJkpYYF-58" value="" style="shape=partialRectangle;html=1;whiteSpace=wrap;connectable=0;strokeColor=inherit;overflow=hidden;fillColor=none;top=0;left=0;bottom=0;right=0;pointerEvents=1;fontSize=16;" vertex="1" parent="2-wkImMzWqmc6pJkpYYF-55">
          <mxGeometry x="81" width="39" height="40" as="geometry">
            <mxRectangle width="39" height="40" as="alternateBounds" />
          </mxGeometry>
        </mxCell>
      </root>
    </mxGraphModel>
  </diagram>
</mxfile>
